<svg width="23" height="21" viewBox="0 0 23 21" fill="none" xmlns="http://www.w3.org/2000/svg">
<path d="M11.5 0.375C11.5 0.375 4.54075 6.3825 0.651625 9.636C0.527817 9.74378 0.428074 9.87641 0.35888 10.0253C0.289686 10.1741 0.252589 10.3359 0.25 10.5C0.25 10.7984 0.368526 11.0845 0.579505 11.2955C0.790483 11.5065 1.07663 11.625 1.375 11.625H3.625V19.5C3.625 19.7984 3.74353 20.0845 3.95451 20.2955C4.16548 20.5065 4.45163 20.625 4.75 20.625H8.125C8.42337 20.625 8.70952 20.5065 8.92049 20.2955C9.13147 20.0845 9.25 19.7984 9.25 19.5V15H13.75V19.5C13.75 19.7984 13.8685 20.0845 14.0795 20.2955C14.2905 20.5065 14.5766 20.625 14.875 20.625H18.25C18.5484 20.625 18.8345 20.5065 19.0455 20.2955C19.2565 20.0845 19.375 19.7984 19.375 19.5V11.625H21.625C21.9234 11.625 22.2095 11.5065 22.4205 11.2955C22.6315 11.0845 22.75 10.7984 22.75 10.5C22.7484 10.3327 22.7088 10.168 22.6342 10.0183C22.5595 9.86864 22.4518 9.73789 22.3191 9.636C18.457 6.3825 11.5 0.375 11.5 0.375Z" fill="#133946" fill-opacity="0.85"/>
</svg>
