<svg width="17" height="21" viewBox="0 0 17 21" fill="none" xmlns="http://www.w3.org/2000/svg">
<path d="M0 18.5287V1.818C0 1.266 0.183001 0.825 0.549001 0.495C0.913501 0.165 1.3395 0 1.827 0C1.98 0 2.13975 0.0209997 2.30625 0.0629997C2.47125 0.1035 2.6295 0.16575 2.781 0.24975L15.9277 8.649C16.2067 8.844 16.4167 9.0675 16.5577 9.3195C16.6972 9.57 16.767 9.85425 16.767 10.1722C16.767 10.4902 16.6972 10.7745 16.5577 11.025C16.4182 11.2755 16.2083 11.499 15.9277 11.6955L2.781 20.0947C2.6295 20.1772 2.46975 20.2395 2.30175 20.2815C2.13375 20.3235 1.974 20.3445 1.8225 20.3445C1.3335 20.3445 0.907499 20.1795 0.544499 19.8495C0.181499 19.5195 0 19.0793 0 18.5287Z" fill="#133946" fill-opacity="0.85"/>
</svg>
