<svg width="17" height="21" viewBox="0 0 17 21" fill="none" xmlns="http://www.w3.org/2000/svg">
<path d="M14.9398 0.5C14.8329 0.500014 14.7145 0.514801 14.5834 0.547852L14.5795 0.548828C14.5192 0.563646 14.46 0.582557 14.4017 0.605469L14.2289 0.6875L1.11755 9.06445C0.893958 9.22219 0.742865 9.39023 0.645874 9.56348C0.552446 9.7315 0.50042 9.93 0.500366 10.1719C0.500366 10.414 0.552338 10.6131 0.645874 10.7812C0.741693 10.9533 0.894645 11.1224 1.12341 11.2832L14.2299 19.6572C14.3427 19.7182 14.4609 19.7655 14.5863 19.7969C14.7202 19.8303 14.8394 19.8447 14.9447 19.8447C15.3088 19.8447 15.6149 19.7261 15.8861 19.4795C16.1315 19.2564 16.267 18.957 16.267 18.5283V1.81836C16.267 1.44293 16.1628 1.16672 15.9711 0.954102L15.8822 0.865234C15.6089 0.617879 15.302 0.5 14.9398 0.5Z" stroke="#133946"/>
</svg>
