<svg width="22" height="22" viewBox="0 0 22 22" fill="none" xmlns="http://www.w3.org/2000/svg">
<path fill-rule="evenodd" clip-rule="evenodd" d="M6.0738 4.56205C6.24259 3.29609 6.83388 2.13763 7.73905 1.29954C8.64421 0.46144 9.80244 0 11.0009 0C12.1994 0 13.3576 0.46144 14.2628 1.29954C15.168 2.13763 15.7593 3.29609 15.928 4.56205C16.283 4.4762 16.6484 4.43268 17.0242 4.43151C18.1326 4.43174 19.2091 4.8267 20.0832 5.55378C20.9573 6.28085 21.5789 7.29843 21.8494 8.44519C22.12 9.59194 22.024 10.8022 21.5767 11.8842C21.1295 12.9662 20.3565 13.8579 19.3803 14.4179C19.9021 15.5937 20.0012 16.9329 19.6587 18.1814C19.3163 19.4299 18.5562 20.5009 17.5227 21.1911C16.4891 21.8813 15.2541 22.1426 14.0519 21.9255C12.8497 21.7085 11.7641 21.0281 11.0009 20.0135C10.2378 21.0281 9.15211 21.7085 7.94993 21.9255C6.74775 22.1426 5.51272 21.8813 4.47919 21.1911C3.44566 20.5009 2.68556 19.4299 2.34313 18.1814C2.00069 16.9329 2.09975 15.5937 2.62151 14.4179C1.64486 13.8584 0.871341 12.9669 0.423691 11.8849C-0.0239576 10.8029 -0.120087 9.59234 0.150558 8.4454C0.421204 7.29846 1.04312 6.28081 1.91761 5.55395C2.7921 4.8271 3.86907 4.43267 4.9776 4.43327C5.35567 4.43327 5.71997 4.4762 6.0738 4.56205ZM14.3077 11.613C14.3077 13.8711 13.1173 15.1412 11.0009 15.1412C8.88457 15.1412 7.69413 13.8711 7.69413 11.613C7.69413 9.35503 8.88457 8.0849 11.0009 8.0849C13.1173 8.0849 14.3077 9.35503 14.3077 11.613Z" fill="#0F5563" fill-opacity="0.59"/>
</svg>
