<svg width="24" height="21" viewBox="0 0 24 21" fill="none" xmlns="http://www.w3.org/2000/svg">
<path d="M0 3.822C0 3.60055 0.146 3.40582 0.372 3.33709C0.509333 3.29382 0.652667 3.25055 0.802 3.20727C1.728 2.93618 2.772 2.63264 3.066 1.65518L3.496 0.349364C3.636 -0.116455 4.376 -0.116455 4.516 0.349364L4.96 1.67618C5.164 2.26036 5.66 2.73191 6.264 2.92664L7.634 3.33709C8.122 3.46882 8.122 4.17709 7.634 4.30882C7.484 4.36227 7.298 4.41382 7.098 4.47109C6.502 4.63909 5.772 4.84718 5.456 5.20418C5.08 5.50964 4.856 6.22936 4.676 6.80018C4.62824 6.96218 4.57487 7.12264 4.516 7.28127C4.4812 7.38283 4.4142 7.47154 4.32427 7.53516C4.23433 7.59877 4.12591 7.63414 4.014 7.63636C3.9017 7.63626 3.79222 7.60274 3.70081 7.54046C3.6094 7.47819 3.5406 7.39025 3.504 7.28891L3.044 5.98309C2.94007 5.6922 2.76809 5.42772 2.54111 5.20974C2.31412 4.99175 2.03811 4.82598 1.734 4.725L0.372 4.30882C0.264334 4.27518 0.170478 4.21007 0.103717 4.1227C0.0369566 4.03533 0.000672348 3.93014 0 3.822ZM1.52 7.69364C1.11242 7.7914 0.747403 8.00912 0.476674 8.31594C0.205946 8.62276 0.0432336 9.00313 0.0115939 9.40314C-0.0200458 9.80315 0.0809912 10.2025 0.300389 10.5447C0.519786 10.8868 0.846417 11.1544 1.234 11.3095C1.47686 11.4054 1.73716 11.4547 2 11.4545V18.9191C2 20.0684 2.976 21 4.18 21H19.82C20.3982 21 20.9527 20.7808 21.3615 20.3905C21.7703 20.0003 22 19.471 22 18.9191V11.4545C22.5304 11.4545 23.0391 11.2534 23.4142 10.8954C23.7893 10.5374 24 10.0518 24 9.54545C24 9.03913 23.7893 8.55355 23.4142 8.19552C23.0391 7.8375 22.5304 7.63636 22 7.63636V5.89909C22 5.3472 21.7703 4.81791 21.3615 4.42767C20.9527 4.03742 20.3982 3.81818 19.82 3.81818H14V1.995C14 1.71905 13.8852 1.45441 13.6807 1.25929C13.4763 1.06416 13.1991 0.954546 12.91 0.954546H11.09C10.8009 0.954546 10.5237 1.06416 10.3193 1.25929C10.1148 1.45441 10 1.71905 10 1.995V3.82391C10 4.68491 9.476 5.775 8.22 6.13582L6.876 6.54627C6.85942 6.55684 6.84459 6.56971 6.832 6.58445V6.58827L6.418 7.84064C6.044 9.04336 4.902 9.54545 3.996 9.54545C3.1 9.54545 1.98 9.05673 1.588 7.89218L1.52 7.69364ZM14 11.4545C14 10.9482 14.2107 10.4626 14.5858 10.1046C14.9609 9.74659 15.4696 9.54545 16 9.54545C16.5304 9.54545 17.0391 9.74659 17.4142 10.1046C17.7893 10.4626 18 10.9482 18 11.4545C18 11.9609 17.7893 12.4465 17.4142 12.8045C17.0391 13.1625 16.5304 13.3636 16 13.3636C15.4696 13.3636 14.9609 13.1625 14.5858 12.8045C14.2107 12.4465 14 11.9609 14 11.4545ZM9 15.2727H15V17.1818H9V15.2727ZM10 11.4545C10 11.9609 9.78929 12.4465 9.41421 12.8045C9.03914 13.1625 8.53043 13.3636 8 13.3636C7.46957 13.3636 6.96086 13.1625 6.58579 12.8045C6.21071 12.4465 6 11.9609 6 11.4545C6 10.9482 6.21071 10.4626 6.58579 10.1046C6.96086 9.74659 7.46957 9.54545 8 9.54545C8.53043 9.54545 9.03914 9.74659 9.41421 10.1046C9.78929 10.4626 10 10.9482 10 11.4545Z" fill="#0F5563" fill-opacity="0.59"/>
</svg>
