<svg width="18" height="17" viewBox="0 0 18 17" fill="none" xmlns="http://www.w3.org/2000/svg">
<path d="M1.91666 13.8333C2.24818 13.8333 2.56612 13.965 2.80054 14.1995C3.03496 14.4339 3.16666 14.7518 3.16666 15.0833C3.16666 15.4149 3.03496 15.7328 2.80054 15.9672C2.56612 16.2016 2.24818 16.3333 1.91666 16.3333C1.58514 16.3333 1.26719 16.2016 1.03277 15.9672C0.798353 15.7328 0.666656 15.4149 0.666656 15.0833C0.666656 14.7518 0.798353 14.4339 1.03277 14.1995C1.26719 13.965 1.58514 13.8333 1.91666 13.8333ZM6.08332 11.3333C6.63586 11.3333 7.16576 11.5528 7.55646 11.9435C7.94716 12.3342 8.16666 12.8641 8.16666 13.4167C8.16666 13.9692 7.94716 14.4991 7.55646 14.8898C7.16576 15.2805 6.63586 15.5 6.08332 15.5C5.53079 15.5 5.00088 15.2805 4.61018 14.8898C4.21948 14.4991 3.99999 13.9692 3.99999 13.4167C3.99999 12.8641 4.21948 12.3342 4.61018 11.9435C5.00088 11.5528 5.53079 11.3333 6.08332 11.3333ZM11.0833 10.5C10.0917 10.5 9.19166 10.0833 8.58332 9.375C7.97499 10.0833 7.07499 10.5 6.08332 10.5C4.44999 10.5 3.09166 9.325 2.80832 7.78333C2.17899 7.53995 1.63782 7.1122 1.25568 6.55609C0.873534 5.99997 0.668233 5.34142 0.666656 4.66667C0.666656 3.78261 1.01785 2.93477 1.64297 2.30964C2.26809 1.68452 3.11593 1.33333 3.99999 1.33333L4.64166 1.39167C5.24999 0.841667 6.04166 0.5 6.91666 0.5C7.90832 0.5 8.80832 0.916667 9.41666 1.625C10.025 0.916667 10.925 0.5 11.9167 0.5C13.55 0.5 14.9083 1.675 15.1917 3.21667C15.821 3.46005 16.3622 3.8878 16.7443 4.44391C17.1264 5.00003 17.3317 5.65858 17.3333 6.33333C17.3333 7.21739 16.9821 8.06523 16.357 8.69036C15.7319 9.31548 14.884 9.66667 14 9.66667L13.3583 9.60833C12.75 10.1583 11.9583 10.5 11.0833 10.5ZM3.99999 3C3.55796 3 3.13404 3.17559 2.82148 3.48816C2.50892 3.80072 2.33332 4.22464 2.33332 4.66667C2.33332 5.10869 2.50892 5.53262 2.82148 5.84518C3.13404 6.15774 3.55796 6.33333 3.99999 6.33333C4.27499 6.33333 4.53332 6.26667 4.76666 6.15C4.54088 6.44092 4.4178 6.79842 4.41666 7.16667C4.41666 7.60869 4.59225 8.03262 4.90481 8.34518C5.21737 8.65774 5.6413 8.83333 6.08332 8.83333C6.58332 8.83333 7.03332 8.60833 7.33332 8.25833L8.55832 6.85833L9.83332 8.28333C10.15 8.61667 10.5917 8.83333 11.0833 8.83333C11.9167 8.83333 12.6083 8.21667 12.75 7.41667C13.0333 7.775 13.4917 8 14 8C14.442 8 14.8659 7.8244 15.1785 7.51184C15.4911 7.19928 15.6667 6.77536 15.6667 6.33333C15.6667 5.89131 15.4911 5.46738 15.1785 5.15482C14.8659 4.84226 14.442 4.66667 14 4.66667C13.725 4.66667 13.4667 4.73333 13.2333 4.85C13.4591 4.55908 13.5822 4.20158 13.5833 3.83333C13.5833 3.39131 13.4077 2.96738 13.0952 2.65482C12.7826 2.34226 12.3587 2.16667 11.9167 2.16667C11.425 2.16667 10.9833 2.38333 10.6667 2.71667L9.39166 4.14167L8.16666 2.74167C7.86666 2.39167 7.41666 2.16667 6.91666 2.16667C6.08332 2.16667 5.39166 2.78333 5.24999 3.58333C4.96666 3.225 4.50832 3 3.99999 3ZM6.08332 12.5833C5.86231 12.5833 5.65035 12.6711 5.49407 12.8274C5.33779 12.9837 5.24999 13.1957 5.24999 13.4167C5.24999 13.6377 5.33779 13.8496 5.49407 14.0059C5.65035 14.1622 5.86231 14.25 6.08332 14.25C6.30434 14.25 6.5163 14.1622 6.67258 14.0059C6.82886 13.8496 6.91666 13.6377 6.91666 13.4167C6.91666 13.1957 6.82886 12.9837 6.67258 12.8274C6.5163 12.6711 6.30434 12.5833 6.08332 12.5833Z" fill="#163F4B"/>
</svg>
