<svg width="29" height="29" viewBox="0 0 29 29" fill="none" xmlns="http://www.w3.org/2000/svg">
<path fill-rule="evenodd" clip-rule="evenodd" d="M14.5 9.96875C13.2982 9.96875 12.1457 10.4461 11.2959 11.2959C10.4461 12.1457 9.96875 13.2982 9.96875 14.5C9.96875 15.7018 10.4461 16.8543 11.2959 17.7041C12.1457 18.5539 13.2982 19.0312 14.5 19.0312C15.7018 19.0312 16.8543 18.5539 17.7041 17.7041C18.5539 16.8543 19.0312 15.7018 19.0312 14.5C19.0312 13.2982 18.5539 12.1457 17.7041 11.2959C16.8543 10.4461 15.7018 9.96875 14.5 9.96875ZM11.7812 14.5C11.7812 13.7789 12.0677 13.0874 12.5776 12.5776C13.0874 12.0677 13.7789 11.7812 14.5 11.7812C15.2211 11.7812 15.9126 12.0677 16.4224 12.5776C16.9323 13.0874 17.2188 13.7789 17.2188 14.5C17.2188 15.2211 16.9323 15.9126 16.4224 16.4224C15.9126 16.9323 15.2211 17.2188 14.5 17.2188C13.7789 17.2188 13.0874 16.9323 12.5776 16.4224C12.0677 15.9126 11.7812 15.2211 11.7812 14.5Z" fill="black"/>
<path fill-rule="evenodd" clip-rule="evenodd" d="M14.4698 1.51038C13.9321 1.51038 13.4838 1.51038 13.1165 1.53454C12.7409 1.54967 12.3705 1.62726 12.0205 1.76413C11.6172 1.93098 11.2508 2.17565 10.942 2.48416C10.6333 2.79266 10.3884 3.15896 10.2213 3.56213C10.0461 3.98504 9.99895 4.43213 9.97962 4.91788C9.97746 5.09548 9.93034 5.26964 9.84265 5.4241C9.75495 5.57856 9.62956 5.70829 9.47816 5.80117C9.32207 5.88614 9.14699 5.93015 8.96928 5.9291C8.79156 5.92804 8.61702 5.88195 8.46195 5.79513C8.03178 5.56796 7.62095 5.3855 7.16662 5.32508C6.73397 5.26818 6.29434 5.29704 5.87285 5.41003C5.45136 5.52303 5.05624 5.71793 4.71008 5.98363C4.41693 6.21862 4.16496 6.5008 3.96453 6.81858C3.75912 7.1255 3.53437 7.51338 3.26612 7.97858L3.23591 8.03175C2.96645 8.49696 2.74291 8.88483 2.58099 9.21592C2.41183 9.5615 2.27891 9.90225 2.23058 10.2793C2.1153 11.1529 2.35175 12.0365 2.88791 12.7358C3.16703 13.0995 3.53074 13.3641 3.94158 13.6227C4.09459 13.7134 4.22208 13.8415 4.31211 13.9949C4.40214 14.1484 4.45176 14.3221 4.45633 14.5C4.45176 14.6778 4.40214 14.8516 4.31211 15.005C4.22208 15.1584 4.09459 15.2865 3.94158 15.3772C3.53074 15.6358 3.16824 15.9004 2.88791 16.2641C2.62222 16.6103 2.42731 17.0054 2.31432 17.4269C2.20132 17.8484 2.17246 18.288 2.22937 18.7207C2.27891 19.0977 2.41062 19.4384 2.57978 19.784C2.74291 20.1151 2.96645 20.503 3.23591 20.9682L3.26612 21.0213C3.53437 21.4865 3.75912 21.8744 3.96453 22.1813C4.17841 22.4991 4.40799 22.7855 4.71008 23.0151C5.05615 23.281 5.45122 23.4761 5.87272 23.5893C6.29422 23.7025 6.73389 23.7316 7.16662 23.6748C7.62095 23.6144 8.03178 23.4332 8.46195 23.2048C8.61687 23.1182 8.79119 23.0722 8.96867 23.0712C9.14615 23.0701 9.32101 23.114 9.47695 23.1988C9.62958 23.2905 9.75608 23.4199 9.84431 23.5746C9.93255 23.7292 9.97956 23.904 9.98083 24.082C9.99895 24.5678 10.0461 25.0149 10.2225 25.4378C10.3894 25.8411 10.634 26.2075 10.9425 26.5162C11.251 26.825 11.6173 27.0699 12.0205 27.237C12.3709 27.382 12.7334 27.4388 13.1165 27.4642C13.4838 27.4895 13.9321 27.4895 14.4698 27.4895H14.5302C15.0679 27.4895 15.5162 27.4895 15.8835 27.4654C16.2678 27.4388 16.6291 27.382 16.9795 27.2358C17.3828 27.0689 17.7492 26.8243 18.0579 26.5158C18.3667 26.2073 18.6116 25.841 18.7787 25.4378C18.9539 25.0149 19.001 24.5678 19.0204 24.082C19.0223 23.9042 19.0694 23.7298 19.1571 23.5751C19.2448 23.4204 19.3703 23.2905 19.5218 23.1975C19.678 23.1128 19.8531 23.0689 20.0309 23.0702C20.2086 23.0715 20.3831 23.1178 20.538 23.2048C20.9682 23.432 21.379 23.6144 21.8334 23.6736C22.707 23.7889 23.5906 23.5525 24.2899 23.0163C24.592 22.7843 24.8216 22.4991 25.0355 22.1813C25.2409 21.8744 25.4656 21.4865 25.7339 21.0213L25.7641 20.9682C26.0335 20.503 26.2571 20.1151 26.419 19.784C26.5882 19.4384 26.7211 19.0965 26.7694 18.7207C26.8847 17.8471 26.6482 16.9634 26.1121 16.2641C25.833 15.9004 25.4692 15.6358 25.0584 15.3772C24.9054 15.2865 24.7779 15.1584 24.6879 15.005C24.5979 14.8516 24.5482 14.6778 24.5437 14.5C24.5437 14.164 24.7273 13.8305 25.0584 13.6227C25.4692 13.3641 25.8317 13.0995 26.1121 12.7358C26.3778 12.3896 26.5727 11.9945 26.6857 11.573C26.7987 11.1515 26.8275 10.7119 26.7706 10.2793C26.7137 9.90781 26.5952 9.54844 26.4202 9.21592C26.2138 8.81448 25.995 8.41957 25.7641 8.03175L25.7339 7.97858C25.5132 7.58476 25.2802 7.19791 25.0355 6.81858C24.8349 6.50123 24.583 6.21947 24.2899 5.98483C23.9438 5.71893 23.5488 5.52381 23.1273 5.41061C22.7058 5.2974 22.2661 5.26834 21.8334 5.32508C21.379 5.3855 20.9682 5.56675 20.538 5.79513C20.3831 5.88173 20.2088 5.92771 20.0313 5.92876C19.8538 5.92982 19.679 5.88592 19.523 5.80117C19.3712 5.70858 19.2453 5.57898 19.1572 5.4245C19.0691 5.27002 19.0216 5.09571 19.0192 4.91788C19.001 4.43213 18.9539 3.98504 18.7775 3.56213C18.6106 3.15884 18.366 2.79238 18.0575 2.48367C17.749 2.17496 17.3827 1.93005 16.9795 1.76292C16.6291 1.61792 16.2666 1.56113 15.8835 1.53575C15.5162 1.51038 15.0679 1.51038 14.5302 1.51038H14.4698ZM12.7141 3.43767C12.8071 3.399 12.9485 3.36396 13.2397 3.34342C13.5382 3.32288 13.9248 3.32288 14.5 3.32288C15.0752 3.32288 15.4618 3.32288 15.7603 3.34342C16.0515 3.36396 16.1929 3.399 16.2859 3.43767C16.6569 3.59113 16.9505 3.88475 17.104 4.25571C17.1523 4.37171 17.1922 4.55417 17.2079 4.98554C17.2441 5.94254 17.7383 6.8645 18.6156 7.37079C19.4928 7.87708 20.538 7.84446 21.3851 7.39738C21.7669 7.19558 21.9445 7.13879 22.0702 7.12308C22.4672 7.07062 22.8688 7.17798 23.1867 7.42154C23.2665 7.48317 23.368 7.58829 23.5311 7.82996C23.699 8.07888 23.8924 8.41358 24.18 8.91142C24.4675 9.40925 24.6597 9.74517 24.7914 10.0134C24.9207 10.2756 24.9605 10.4158 24.9726 10.5161C25.0251 10.9131 24.9177 11.3147 24.6742 11.6326C24.5968 11.7329 24.4591 11.8585 24.0942 12.0881C23.2822 12.598 22.7312 13.4874 22.7312 14.5C22.7312 15.5125 23.2822 16.4019 24.0942 16.9118C24.4591 17.1414 24.5968 17.267 24.6742 17.3673C24.9182 17.6851 25.0246 18.0863 24.9726 18.4838C24.9605 18.5841 24.9195 18.7255 24.7914 18.9865C24.6597 19.256 24.4675 19.5907 24.18 20.0885C23.8924 20.5863 23.6978 20.921 23.5311 21.17C23.368 21.4116 23.2665 21.5168 23.1867 21.5784C22.8688 21.8219 22.4672 21.9293 22.0702 21.8768C21.9445 21.8611 21.7681 21.8043 21.3851 21.6025C20.5392 21.1555 19.4928 21.1216 18.6156 21.6279C17.7383 22.1342 17.2441 23.0574 17.2079 24.0144C17.1922 24.4458 17.1523 24.6282 17.104 24.7442C17.028 24.9276 16.9167 25.0943 16.7764 25.2347C16.636 25.375 16.4693 25.4863 16.2859 25.5623C16.1929 25.6009 16.0515 25.636 15.7603 25.6565C15.4618 25.677 15.0752 25.677 14.5 25.677C13.9248 25.677 13.5382 25.677 13.2397 25.6565C12.9485 25.636 12.8071 25.6009 12.7141 25.5623C12.5307 25.4863 12.364 25.375 12.2236 25.2347C12.0833 25.0943 11.9719 24.9276 11.896 24.7442C11.8477 24.6282 11.8078 24.4458 11.7921 24.0144C11.7559 23.0574 11.2617 22.1354 10.3844 21.6291C9.50716 21.1228 8.46195 21.1555 7.61491 21.6025C7.23308 21.8043 7.05545 21.8611 6.92978 21.8768C6.53277 21.9293 6.13117 21.8219 5.81328 21.5784C5.73353 21.5168 5.63203 21.4116 5.46891 21.17C5.2416 20.8162 5.02521 20.4555 4.82003 20.0885C4.53245 19.5907 4.34033 19.2548 4.20862 18.9865C4.07933 18.7243 4.03945 18.5841 4.02737 18.4838C3.97491 18.0868 4.08226 17.6852 4.32583 17.3673C4.40316 17.267 4.54091 17.1414 4.90583 16.9118C5.71783 16.4019 6.26883 15.5125 6.26883 14.5C6.26883 13.4874 5.71783 12.598 4.90583 12.0881C4.54091 11.8585 4.40316 11.7329 4.32583 11.6326C4.08226 11.3147 3.97491 10.9131 4.02737 10.5161C4.03945 10.4158 4.08053 10.2744 4.20862 10.0134C4.34033 9.74396 4.53245 9.40925 4.82003 8.91142C5.10762 8.41358 5.30216 8.07888 5.46891 7.82996C5.63203 7.58829 5.73353 7.48317 5.81328 7.42154C6.13117 7.17798 6.53277 7.07062 6.92978 7.12308C7.05545 7.13879 7.23187 7.19558 7.61491 7.39738C8.46074 7.84446 9.50716 7.87829 10.3844 7.37079C11.2617 6.8645 11.7559 5.94254 11.7921 4.98554C11.8078 4.55417 11.8477 4.37171 11.896 4.25571C12.0495 3.88475 12.3431 3.59113 12.7141 3.43767Z" fill="black"/>
</svg>
