<svg width="17" height="17" viewBox="0 0 17 17" fill="none" xmlns="http://www.w3.org/2000/svg">
<mask id="path-1-inside-1_104_27" fill="white">
<path d="M1.01579 6.34228C1.16601 6.55009 1.37798 6.70625 1.62082 6.78759L3.04582 7.2519C3.47511 7.3951 3.85223 7.6625 4.12942 8.02022C4.28735 8.22447 4.40966 8.45365 4.49041 8.69947L4.96066 10.1423C5.04447 10.384 5.20165 10.5936 5.41026 10.7418C5.61888 10.8899 5.86854 10.9693 6.12441 10.9688C6.38085 10.9699 6.63113 10.8903 6.83988 10.7414C7.04948 10.587 7.20801 10.3732 7.29529 10.128L7.75901 8.70184C7.87182 8.36578 8.06063 8.06059 8.3112 7.80884C8.56008 7.5589 8.8641 7.37079 9.19885 7.25962L10.65 6.78819C10.829 6.72432 10.9909 6.61991 11.1229 6.48311C11.2549 6.34631 11.3535 6.18083 11.4109 5.99961C11.4683 5.81839 11.4831 5.62634 11.454 5.43848C11.4249 5.25061 11.3527 5.07203 11.2431 4.91669C11.0848 4.69574 10.8596 4.53168 10.6007 4.44881L9.17213 3.98628C8.83613 3.87502 8.53074 3.68688 8.28026 3.43681C8.02978 3.18674 7.84113 2.88166 7.72932 2.54584L7.25788 1.09709C7.17358 0.857348 7.01668 0.649819 6.80901 0.503341C6.59961 0.35856 6.35108 0.281006 6.09651 0.281006C5.84194 0.281006 5.5934 0.35856 5.38401 0.503341C5.17055 0.653486 5.01042 0.867681 4.92682 1.1149L4.45301 2.57315C4.34115 2.8992 4.157 3.19572 3.91434 3.44054C3.67168 3.68536 3.3768 3.87213 3.05176 3.98687L1.60301 4.45594C1.42205 4.51981 1.25849 4.62504 1.12535 4.76325C0.992206 4.90146 0.893157 5.06883 0.836081 5.25205C0.779004 5.43527 0.765475 5.62928 0.79657 5.81866C0.827665 6.00802 0.902526 6.18752 1.0152 6.34287M6.12916 9.78128H6.12204C6.1138 9.78133 6.10573 9.77893 6.09886 9.77438C6.09199 9.76984 6.08662 9.76335 6.08345 9.75575L5.61913 8.33134L5.61854 8.32837C5.49562 7.95428 5.30945 7.60403 5.06813 7.29287L5.06695 7.29109C4.6463 6.74873 4.0744 6.34316 3.42345 6.12556L3.4187 6.12437L1.99785 5.66184C1.98939 5.65829 1.98214 5.65236 1.97698 5.64477C1.97182 5.63719 1.96896 5.62827 1.96876 5.61909C1.96892 5.61044 1.97143 5.602 1.97604 5.59467C1.98064 5.58735 1.98716 5.58142 1.99488 5.57753L3.43176 5.11144L3.4466 5.10609C3.94068 4.93175 4.38891 4.64789 4.75774 4.27577C5.12656 3.90365 5.40643 3.45291 5.57638 2.95731L5.57935 2.9484L6.05316 1.49312C6.05554 1.48679 6.0591 1.48145 6.06385 1.47709C6.07378 1.47136 6.08504 1.46834 6.09651 1.46834C6.10797 1.46834 6.11924 1.47136 6.12916 1.47709C6.13233 1.47986 6.13471 1.48342 6.13629 1.48778L6.6006 2.91278L6.60298 2.9199C6.77306 3.43139 7.06025 3.89608 7.44165 4.27697C7.82306 4.65786 8.28814 4.94442 8.79985 5.11381L10.2344 5.57872L10.2391 5.5799C10.2531 5.58463 10.2655 5.59329 10.2747 5.60484C10.2793 5.61187 10.2816 5.62011 10.2814 5.62848C10.2812 5.63685 10.2784 5.64496 10.2735 5.65175L10.2729 5.65294C10.2682 5.65873 10.2623 5.66357 10.2557 5.66719L8.83191 6.13031L8.82479 6.13269C8.31387 6.30221 7.84981 6.58915 7.46985 6.97047C7.09054 7.35167 6.80407 7.81509 6.63266 8.32481L6.63148 8.33015L6.17429 9.73615C6.16753 9.752 6.1574 9.76618 6.1446 9.77772L6.12916 9.78128ZM14.2315 10.2806C14.2999 10.4838 14.4145 10.6683 14.5664 10.8195C14.7183 10.9708 14.9032 11.0847 15.1067 11.1522L16.0893 11.4729C16.2964 11.5371 16.4779 11.6652 16.6078 11.8388C16.7377 12.0124 16.8095 12.2226 16.8128 12.4394C16.8161 12.6562 16.7508 12.8685 16.6262 13.046C16.5016 13.2234 16.324 13.357 16.119 13.4275L15.1257 13.7517C14.922 13.8186 14.7369 13.9325 14.5854 14.0842C14.4339 14.2367 14.3195 14.4219 14.2511 14.6257L13.9316 15.6054C13.8602 15.8131 13.7252 15.993 13.5457 16.1196C13.3736 16.2432 13.1674 16.3106 12.9555 16.3125C12.7417 16.3133 12.533 16.2474 12.3584 16.124C12.1839 16.0005 12.0522 15.8256 11.9818 15.6238L11.6564 14.6287C11.59 14.4242 11.4763 14.2382 11.3245 14.086C11.1718 13.9339 10.9861 13.8191 10.7818 13.7505L9.80032 13.4328C9.59222 13.3619 9.41198 13.2268 9.28554 13.0469C9.19261 12.9168 9.13129 12.7669 9.10643 12.609C9.08157 12.4511 9.09386 12.2896 9.14233 12.1372C9.1908 11.9849 9.27411 11.846 9.38565 11.7315C9.49719 11.617 9.63388 11.5301 9.78488 11.4776L10.783 11.1522C10.9827 11.0819 11.1636 10.9666 11.3117 10.8152C11.4598 10.6639 11.5713 10.4806 11.6374 10.2794L11.955 9.29975C12.0055 9.14647 12.0914 9.00723 12.2056 8.89327C12.3199 8.77932 12.4594 8.69386 12.6128 8.6438C12.7662 8.59374 12.9293 8.58048 13.0887 8.60511C13.2482 8.62974 13.3997 8.69156 13.5309 8.78556C13.706 8.90847 13.8378 9.08362 13.9073 9.2855L14.2315 10.2806ZM14.732 12.2792C14.3539 12.1536 14.0102 11.9418 13.728 11.6606C13.4457 11.3794 13.2327 11.0365 13.1057 10.6588L13.1039 10.6535L12.9335 10.131L12.7643 10.6535C12.6396 11.0276 12.4318 11.3684 12.1563 11.6504L12.1534 11.6534C11.8796 11.9317 11.5457 12.1436 11.1772 12.2727L11.1642 12.2768L10.6268 12.452L11.1535 12.6224L11.1594 12.6247C11.537 12.7512 11.8802 12.9632 12.1629 13.2446L12.164 13.2458C12.449 13.5308 12.6616 13.8782 12.7857 14.2611L12.7863 14.2635L12.9537 14.7741L13.1235 14.2528L13.1253 14.2481C13.2518 13.8718 13.4631 13.5297 13.7428 13.2482C14.027 12.9626 14.3747 12.7484 14.7575 12.623L15.2717 12.4549L14.732 12.2792Z"/>
</mask>
<path d="M1.01579 6.34228C1.16601 6.55009 1.37798 6.70625 1.62082 6.78759L3.04582 7.2519C3.47511 7.3951 3.85223 7.6625 4.12942 8.02022C4.28735 8.22447 4.40966 8.45365 4.49041 8.69947L4.96066 10.1423C5.04447 10.384 5.20165 10.5936 5.41026 10.7418C5.61888 10.8899 5.86854 10.9693 6.12441 10.9688C6.38085 10.9699 6.63113 10.8903 6.83988 10.7414C7.04948 10.587 7.20801 10.3732 7.29529 10.128L7.75901 8.70184C7.87182 8.36578 8.06063 8.06059 8.3112 7.80884C8.56008 7.5589 8.8641 7.37079 9.19885 7.25962L10.65 6.78819C10.829 6.72432 10.9909 6.61991 11.1229 6.48311C11.2549 6.34631 11.3535 6.18083 11.4109 5.99961C11.4683 5.81839 11.4831 5.62634 11.454 5.43848C11.4249 5.25061 11.3527 5.07203 11.2431 4.91669C11.0848 4.69574 10.8596 4.53168 10.6007 4.44881L9.17213 3.98628C8.83613 3.87502 8.53074 3.68688 8.28026 3.43681C8.02978 3.18674 7.84113 2.88166 7.72932 2.54584L7.25788 1.09709C7.17358 0.857348 7.01668 0.649819 6.80901 0.503341C6.59961 0.35856 6.35108 0.281006 6.09651 0.281006C5.84194 0.281006 5.5934 0.35856 5.38401 0.503341C5.17055 0.653486 5.01042 0.867681 4.92682 1.1149L4.45301 2.57315C4.34115 2.8992 4.157 3.19572 3.91434 3.44054C3.67168 3.68536 3.3768 3.87213 3.05176 3.98687L1.60301 4.45594C1.42205 4.51981 1.25849 4.62504 1.12535 4.76325C0.992206 4.90146 0.893157 5.06883 0.836081 5.25205C0.779004 5.43527 0.765475 5.62928 0.79657 5.81866C0.827665 6.00802 0.902526 6.18752 1.0152 6.34287M6.12916 9.78128H6.12204C6.1138 9.78133 6.10573 9.77893 6.09886 9.77438C6.09199 9.76984 6.08662 9.76335 6.08345 9.75575L5.61913 8.33134L5.61854 8.32837C5.49562 7.95428 5.30945 7.60403 5.06813 7.29287L5.06695 7.29109C4.6463 6.74873 4.0744 6.34316 3.42345 6.12556L3.4187 6.12437L1.99785 5.66184C1.98939 5.65829 1.98214 5.65236 1.97698 5.64477C1.97182 5.63719 1.96896 5.62827 1.96876 5.61909C1.96892 5.61044 1.97143 5.602 1.97604 5.59467C1.98064 5.58735 1.98716 5.58142 1.99488 5.57753L3.43176 5.11144L3.4466 5.10609C3.94068 4.93175 4.38891 4.64789 4.75774 4.27577C5.12656 3.90365 5.40643 3.45291 5.57638 2.95731L5.57935 2.9484L6.05316 1.49312C6.05554 1.48679 6.0591 1.48145 6.06385 1.47709C6.07378 1.47136 6.08504 1.46834 6.09651 1.46834C6.10797 1.46834 6.11924 1.47136 6.12916 1.47709C6.13233 1.47986 6.13471 1.48342 6.13629 1.48778L6.6006 2.91278L6.60298 2.9199C6.77306 3.43139 7.06025 3.89608 7.44165 4.27697C7.82306 4.65786 8.28814 4.94442 8.79985 5.11381L10.2344 5.57872L10.2391 5.5799C10.2531 5.58463 10.2655 5.59329 10.2747 5.60484C10.2793 5.61187 10.2816 5.62011 10.2814 5.62848C10.2812 5.63685 10.2784 5.64496 10.2735 5.65175L10.2729 5.65294C10.2682 5.65873 10.2623 5.66357 10.2557 5.66719L8.83191 6.13031L8.82479 6.13269C8.31387 6.30221 7.84981 6.58915 7.46985 6.97047C7.09054 7.35167 6.80407 7.81509 6.63266 8.32481L6.63148 8.33015L6.17429 9.73615C6.16753 9.752 6.1574 9.76618 6.1446 9.77772L6.12916 9.78128ZM14.2315 10.2806C14.2999 10.4838 14.4145 10.6683 14.5664 10.8195C14.7183 10.9708 14.9032 11.0847 15.1067 11.1522L16.0893 11.4729C16.2964 11.5371 16.4779 11.6652 16.6078 11.8388C16.7377 12.0124 16.8095 12.2226 16.8128 12.4394C16.8161 12.6562 16.7508 12.8685 16.6262 13.046C16.5016 13.2234 16.324 13.357 16.119 13.4275L15.1257 13.7517C14.922 13.8186 14.7369 13.9325 14.5854 14.0842C14.4339 14.2367 14.3195 14.4219 14.2511 14.6257L13.9316 15.6054C13.8602 15.8131 13.7252 15.993 13.5457 16.1196C13.3736 16.2432 13.1674 16.3106 12.9555 16.3125C12.7417 16.3133 12.533 16.2474 12.3584 16.124C12.1839 16.0005 12.0522 15.8256 11.9818 15.6238L11.6564 14.6287C11.59 14.4242 11.4763 14.2382 11.3245 14.086C11.1718 13.9339 10.9861 13.8191 10.7818 13.7505L9.80032 13.4328C9.59222 13.3619 9.41198 13.2268 9.28554 13.0469C9.19261 12.9168 9.13129 12.7669 9.10643 12.609C9.08157 12.4511 9.09386 12.2896 9.14233 12.1372C9.1908 11.9849 9.27411 11.846 9.38565 11.7315C9.49719 11.617 9.63388 11.5301 9.78488 11.4776L10.783 11.1522C10.9827 11.0819 11.1636 10.9666 11.3117 10.8152C11.4598 10.6639 11.5713 10.4806 11.6374 10.2794L11.955 9.29975C12.0055 9.14647 12.0914 9.00723 12.2056 8.89327C12.3199 8.77932 12.4594 8.69386 12.6128 8.6438C12.7662 8.59374 12.9293 8.58048 13.0887 8.60511C13.2482 8.62974 13.3997 8.69156 13.5309 8.78556C13.706 8.90847 13.8378 9.08362 13.9073 9.2855L14.2315 10.2806ZM14.732 12.2792C14.3539 12.1536 14.0102 11.9418 13.728 11.6606C13.4457 11.3794 13.2327 11.0365 13.1057 10.6588L13.1039 10.6535L12.9335 10.131L12.7643 10.6535C12.6396 11.0276 12.4318 11.3684 12.1563 11.6504L12.1534 11.6534C11.8796 11.9317 11.5457 12.1436 11.1772 12.2727L11.1642 12.2768L10.6268 12.452L11.1535 12.6224L11.1594 12.6247C11.537 12.7512 11.8802 12.9632 12.1629 13.2446L12.164 13.2458C12.449 13.5308 12.6616 13.8782 12.7857 14.2611L12.7863 14.2635L12.9537 14.7741L13.1235 14.2528L13.1253 14.2481C13.2518 13.8718 13.4631 13.5297 13.7428 13.2482C14.027 12.9626 14.3747 12.7484 14.7575 12.623L15.2717 12.4549L14.732 12.2792Z" fill="#18434D"/>
<path d="M1.62082 6.78759L1.49377 7.16689L1.4969 7.16791L1.62082 6.78759ZM3.04582 7.2519L3.1724 6.87245L3.16974 6.87158L3.04582 7.2519ZM4.12942 8.02022L4.44585 7.77553L4.4456 7.77521L4.12942 8.02022ZM4.49041 8.69947L4.87073 8.57551L4.87044 8.57463L4.49041 8.69947ZM4.96066 10.1423L4.58029 10.2663L4.58273 10.2733L4.96066 10.1423ZM6.12441 10.9688L6.12609 10.5688L6.12361 10.5688L6.12441 10.9688ZM6.83988 10.7414L7.07222 11.067L7.0771 11.0634L6.83988 10.7414ZM7.29529 10.128L7.67227 10.2622L7.67569 10.2517L7.29529 10.128ZM7.75901 8.70184L7.37979 8.57454L7.37861 8.57816L7.75901 8.70184ZM8.3112 7.80884L8.02776 7.5266L8.02769 7.52667L8.3112 7.80884ZM9.19885 7.25962L9.07526 6.87919L9.07278 6.88001L9.19885 7.25962ZM10.65 6.78819L10.7736 7.16877L10.7844 7.16494L10.65 6.78819ZM11.2431 4.91669L11.57 4.68611L11.5683 4.68371L11.2431 4.91669ZM10.6007 4.44881L10.4775 4.82936L10.4787 4.82976L10.6007 4.44881ZM9.17213 3.98628L9.0464 4.36601L9.04892 4.36683L9.17213 3.98628ZM7.72932 2.54584L7.34894 2.66962L7.3498 2.6722L7.72932 2.54584ZM7.25788 1.09709L7.63836 0.973282L7.63523 0.964393L7.25788 1.09709ZM6.80901 0.503341L7.03957 0.176454L7.0365 0.174329L6.80901 0.503341ZM6.09651 0.281006V0.681006V0.281006ZM5.38401 0.503341L5.15651 0.174318L5.15388 0.17617L5.38401 0.503341ZM4.92682 1.1149L4.54787 0.986757L4.5464 0.991297L4.92682 1.1149ZM4.45301 2.57315L4.83141 2.70298L4.83343 2.69676L4.45301 2.57315ZM3.05176 3.98687L3.17501 4.36756L3.18491 4.36406L3.05176 3.98687ZM1.60301 4.45594L1.47976 4.07525L1.46987 4.07874L1.60301 4.45594ZM6.12916 9.78128V10.1813H6.17472L6.21912 10.171L6.12916 9.78128ZM6.12204 9.78128V9.38127L6.11966 9.38129L6.12204 9.78128ZM6.08345 9.75575L5.70314 9.87972L5.70816 9.8951L5.7144 9.91003L6.08345 9.75575ZM5.61913 8.33134L5.22689 8.40973L5.23151 8.43287L5.23883 8.45531L5.61913 8.33134ZM5.61854 8.32837L6.01078 8.24998L6.00607 8.22638L5.99855 8.20351L5.61854 8.32837ZM5.06813 7.29287L4.7353 7.51473L4.74326 7.52667L4.75205 7.53801L5.06813 7.29287ZM5.06695 7.29109L5.39978 7.06924L5.39182 7.05729L5.38302 7.04595L5.06695 7.29109ZM3.42345 6.12556L3.55026 5.74619L3.53555 5.74128L3.5205 5.73751L3.42345 6.12556ZM3.4187 6.12437L3.29488 6.50473L3.30813 6.50904L3.32164 6.51242L3.4187 6.12437ZM1.99785 5.66184L1.84295 6.03063L1.85825 6.03706L1.87403 6.0422L1.99785 5.66184ZM1.96876 5.61909L1.56882 5.61185L1.56868 5.61986L1.56886 5.62788L1.96876 5.61909ZM1.99488 5.57753L1.87146 5.19705L1.84232 5.2065L1.81495 5.22028L1.99488 5.57753ZM3.43176 5.11144L3.55524 5.49211L3.56725 5.48779L3.43176 5.11144ZM3.4466 5.10609L3.31349 4.72888L3.31112 4.72974L3.4466 5.10609ZM5.57638 2.95731L5.95477 3.08707L5.95586 3.08381L5.57638 2.95731ZM5.57935 2.9484L5.95883 3.0749L5.9597 3.07224L5.57935 2.9484ZM6.05316 1.49312L5.67863 1.35267L5.67554 1.36092L5.67282 1.36929L6.05316 1.49312ZM6.06385 1.47709L5.86385 1.13068L5.82588 1.1526L5.79356 1.18223L6.06385 1.47709ZM6.12916 1.47709L6.39257 1.17606L6.36309 1.15027L6.32916 1.13068L6.12916 1.47709ZM6.13629 1.48778L6.51683 1.36379L6.51221 1.35108L6.13629 1.48778ZM6.6006 2.91278L6.22027 3.0367L6.22114 3.03929L6.6006 2.91278ZM6.60298 2.9199L6.98254 2.79369L6.98244 2.79339L6.60298 2.9199ZM8.79985 5.11381L8.67414 5.49355L8.67653 5.49433L8.79985 5.11381ZM10.2344 5.57872L10.111 5.95923L10.1241 5.96346L10.1374 5.96678L10.2344 5.57872ZM10.2391 5.5799L10.3669 5.20087L10.3517 5.19574L10.3361 5.19184L10.2391 5.5799ZM10.2747 5.60484L10.6105 5.38748L10.5996 5.37067L10.5871 5.35503L10.2747 5.60484ZM10.2735 5.65175L9.94918 5.41768L9.93022 5.44395L9.91573 5.47293L10.2735 5.65175ZM10.2729 5.65294L10.5814 5.90759L10.6104 5.87248L10.6308 5.83175L10.2729 5.65294ZM10.2557 5.66719L10.3795 6.04757L10.4152 6.03593L10.4482 6.01784L10.2557 5.66719ZM8.83191 6.13031L8.70818 5.74992L8.70542 5.75084L8.83191 6.13031ZM8.82479 6.13269L8.95076 6.51233L8.95128 6.51216L8.82479 6.13269ZM7.46985 6.97047L7.1865 6.68813L7.18631 6.68833L7.46985 6.97047ZM6.63266 8.32481L6.25353 8.19732L6.24678 8.21738L6.24219 8.23803L6.63266 8.32481ZM6.63148 8.33015L7.01187 8.45385L7.0178 8.43563L7.02195 8.41693L6.63148 8.33015ZM6.17429 9.73615L6.54217 9.89321L6.54917 9.87681L6.55468 9.85985L6.17429 9.73615ZM6.1446 9.77772L6.23455 10.1675L6.33552 10.1442L6.41248 10.0748L6.1446 9.77772ZM14.2315 10.2806L13.8511 10.4045L13.8524 10.4082L14.2315 10.2806ZM15.1067 11.1522L14.9806 11.5319L14.9826 11.5325L15.1067 11.1522ZM16.0893 11.4729L15.9652 11.8532L15.9708 11.8549L16.0893 11.4729ZM16.119 13.4275L16.2431 13.8078L16.2491 13.8057L16.119 13.4275ZM15.1257 13.7517L15.0016 13.3714L15.0009 13.3716L15.1257 13.7517ZM14.5854 14.0842L14.3023 13.8015L14.3016 13.8023L14.5854 14.0842ZM14.2511 14.6257L13.8719 14.4983L13.8708 14.5017L14.2511 14.6257ZM13.9316 15.6054L14.3099 15.7355L14.3119 15.7294L13.9316 15.6054ZM13.5457 16.1196L13.3152 15.7927L13.3123 15.7947L13.5457 16.1196ZM12.9555 16.3125L12.957 16.7125L12.9591 16.7125L12.9555 16.3125ZM11.9818 15.6238L11.6015 15.7481L11.6041 15.7556L11.9818 15.6238ZM11.6564 14.6287L11.2759 14.7521L11.2762 14.753L11.6564 14.6287ZM11.3245 14.086L11.6077 13.8035L11.6067 13.8025L11.3245 14.086ZM10.7818 13.7505L10.9091 13.3713L10.905 13.3699L10.7818 13.7505ZM9.80032 13.4328L9.67124 13.8115L9.67715 13.8134L9.80032 13.4328ZM9.28554 13.0469L9.61279 12.8169L9.611 12.8144L9.28554 13.0469ZM9.78488 11.4776L9.66088 11.0973L9.65364 11.0998L9.78488 11.4776ZM10.783 11.1522L10.907 11.5327L10.9159 11.5295L10.783 11.1522ZM11.6374 10.2794L12.0174 10.4043L12.0179 10.4028L11.6374 10.2794ZM11.955 9.29975L11.5751 9.17462L11.5745 9.17637L11.955 9.29975ZM13.5309 8.78556L13.2978 9.1107L13.3011 9.11299L13.5309 8.78556ZM13.9073 9.2855L14.2877 9.16158L14.2855 9.15534L13.9073 9.2855ZM14.732 12.2792L14.6059 12.6588L14.6082 12.6595L14.732 12.2792ZM13.1057 10.6588L12.7263 10.7853L12.7266 10.7863L13.1057 10.6588ZM13.1039 10.6535L12.7237 10.7775L12.7245 10.78L13.1039 10.6535ZM12.9335 10.131L13.3138 10.007L12.9322 8.83686L12.553 10.0078L12.9335 10.131ZM12.7643 10.6535L13.1438 10.78L13.1449 10.7767L12.7643 10.6535ZM12.1563 11.6504L12.4391 11.9333L12.4425 11.9299L12.1563 11.6504ZM12.1534 11.6534L11.8706 11.3705L11.8682 11.3729L12.1534 11.6534ZM11.1772 12.2727L11.2986 12.654L11.3095 12.6502L11.1772 12.2727ZM11.1642 12.2768L11.0429 11.8956L11.0402 11.8965L11.1642 12.2768ZM10.6268 12.452L10.5029 12.0717L9.33184 12.4534L10.5037 12.8325L10.6268 12.452ZM11.1535 12.6224L11.302 12.251L11.2895 12.246L11.2766 12.2418L11.1535 12.6224ZM11.1594 12.6247L11.0109 12.9961L11.0215 13.0004L11.0324 13.004L11.1594 12.6247ZM12.1629 13.2446L12.4457 12.9618L12.4451 12.9612L12.1629 13.2446ZM12.7857 14.2611L13.1738 14.1642L13.1704 14.1509L13.1662 14.1378L12.7857 14.2611ZM12.7863 14.2635L12.3982 14.3605L12.4017 14.3744L12.4062 14.3881L12.7863 14.2635ZM12.9537 14.7741L12.5736 14.8988L12.955 16.0617L13.3341 14.898L12.9537 14.7741ZM13.1235 14.2528L12.749 14.1123L12.7459 14.1206L12.7432 14.1289L13.1235 14.2528ZM13.1253 14.2481L13.5001 14.3886L13.5045 14.3755L13.1253 14.2481ZM13.7428 13.2482L13.4593 12.966L13.4591 12.9662L13.7428 13.2482ZM14.7575 12.623L14.6333 12.2428L14.633 12.2429L14.7575 12.623ZM15.2717 12.4549L15.396 12.8351L16.5615 12.4543L15.3956 12.0746L15.2717 12.4549ZM1.01579 6.34228L0.691616 6.57661C0.890608 6.8519 1.1714 7.0589 1.49377 7.16688L1.62082 6.78759L1.74787 6.4083C1.58455 6.3536 1.44141 6.24829 1.33996 6.10795L1.01579 6.34228ZM1.62082 6.78759L1.4969 7.16791L2.9219 7.63222L3.04582 7.2519L3.16974 6.87158L1.74474 6.40727L1.62082 6.78759ZM3.04582 7.2519L2.91925 7.63135C3.27341 7.74949 3.58455 7.9701 3.81323 8.26522L4.12942 8.02022L4.4456 7.77521C4.11991 7.3549 3.6768 7.04072 3.1724 6.87246L3.04582 7.2519ZM4.12942 8.02022L3.81298 8.2649C3.94343 8.4336 4.04405 8.62235 4.11039 8.8243L4.49041 8.69947L4.87044 8.57463C4.77528 8.28496 4.63128 8.01533 4.44585 7.77553L4.12942 8.02022ZM4.49041 8.69947L4.1101 8.82342L4.58035 10.2662L4.96066 10.1423L5.34097 10.0183L4.87072 8.57551L4.49041 8.69947ZM4.96066 10.1423L4.58273 10.2733C4.69381 10.5937 4.90214 10.8715 5.17865 11.0679L5.41026 10.7418L5.64188 10.4157C5.50115 10.3157 5.39513 10.1743 5.3386 10.0113L4.96066 10.1423ZM5.41026 10.7418L5.17865 11.0679C5.45516 11.2643 5.78607 11.3695 6.12522 11.3688L6.12441 10.9688L6.12361 10.5688C5.95101 10.5691 5.7826 10.5156 5.64188 10.4157L5.41026 10.7418ZM6.12441 10.9688L6.12274 11.3688C6.46303 11.3702 6.79517 11.2646 7.07219 11.067L6.83988 10.7414L6.60758 10.4157C6.46709 10.516 6.29866 10.5695 6.12609 10.5688L6.12441 10.9688ZM6.83988 10.7414L7.0771 11.0634C7.35112 10.8616 7.55817 10.5823 7.67213 10.2622L7.29529 10.128L6.91845 9.9939C6.85785 10.1642 6.74783 10.3124 6.60267 10.4193L6.83988 10.7414ZM7.29529 10.128L7.67569 10.2517L8.13941 8.82553L7.75901 8.70184L7.37861 8.57816L6.91489 10.0043L7.29529 10.128ZM7.75901 8.70184L8.13821 8.82914C8.23138 8.55158 8.38736 8.29934 8.59471 8.09102L8.3112 7.80884L8.02769 7.52667C7.7339 7.82184 7.51226 8.17997 7.3798 8.57455L7.75901 8.70184ZM8.3112 7.80884L8.59464 8.09109C8.7994 7.88546 9.04952 7.7307 9.32492 7.63924L9.19885 7.25962L9.07278 6.88001C8.67869 7.01089 8.32077 7.23235 8.02776 7.5266L8.3112 7.80884ZM9.19885 7.25962L9.32244 7.64005L10.7736 7.16861L10.65 6.78819L10.5264 6.40776L9.07526 6.8792L9.19885 7.25962ZM10.65 6.78819L10.7844 7.16494C11.0215 7.08035 11.2359 6.94205 11.4107 6.76086L11.1229 6.48311L10.8351 6.20536C10.7459 6.29776 10.6366 6.36829 10.5156 6.41143L10.65 6.78819ZM11.1229 6.48311L11.4107 6.76086C11.5856 6.57967 11.7161 6.36049 11.7922 6.12046L11.4109 5.99961L11.0296 5.87876C10.9908 6.00117 10.9242 6.11295 10.8351 6.20536L11.1229 6.48311ZM11.4109 5.99961L11.7922 6.12046C11.8683 5.88043 11.8878 5.62606 11.8493 5.37724L11.454 5.43848L11.0587 5.49972C11.0784 5.62662 11.0684 5.75635 11.0296 5.87876L11.4109 5.99961ZM11.454 5.43848L11.8493 5.37724C11.8107 5.12841 11.7151 4.89187 11.57 4.68612L11.2431 4.91669L10.9163 5.14725C10.9903 5.25219 11.039 5.37282 11.0587 5.49972L11.454 5.43848ZM11.2431 4.91669L11.5683 4.68371C11.3599 4.39289 11.0634 4.17694 10.7227 4.06786L10.6007 4.44881L10.4787 4.82976C10.6557 4.88643 10.8097 4.9986 10.918 5.14966L11.2431 4.91669ZM10.6007 4.44881L10.7239 4.06826L9.29535 3.60573L9.17213 3.98628L9.04892 4.36683L10.4775 4.82936L10.6007 4.44881ZM9.17213 3.98628L9.29787 3.60655C9.02097 3.51487 8.76929 3.35982 8.56287 3.15373L8.28026 3.43681L7.99765 3.71988C8.29219 4.01394 8.6513 4.23518 9.0464 4.366L9.17213 3.98628ZM8.28026 3.43681L8.56287 3.15373C8.35645 2.94765 8.20098 2.69623 8.10884 2.41948L7.72932 2.54584L7.3498 2.6722C7.48128 3.06709 7.70311 3.42583 7.99765 3.71988L8.28026 3.43681ZM7.72932 2.54584L8.10969 2.42207L7.63825 0.973316L7.25788 1.09709L6.87752 1.22087L7.34895 2.66962L7.72932 2.54584ZM7.25788 1.09709L7.63523 0.964393C7.52335 0.646247 7.31515 0.370849 7.03956 0.176468L6.80901 0.503341L6.57846 0.830215C6.71822 0.928789 6.8238 1.06845 6.88054 1.22979L7.25788 1.09709ZM6.80901 0.503341L7.0365 0.174329C6.76025 -0.016678 6.43236 -0.118994 6.09651 -0.118994V0.281006V0.681006C6.2698 0.681006 6.43898 0.733799 6.58152 0.832354L6.80901 0.503341ZM6.09651 0.281006V-0.118994C5.76065 -0.118994 5.43277 -0.0166779 5.15652 0.174329L5.38401 0.503341L5.6115 0.832354C5.75404 0.733799 5.92322 0.681006 6.09651 0.681006V0.281006ZM5.38401 0.503341L5.15388 0.17617C4.87095 0.37518 4.65871 0.659084 4.5479 0.986766L4.92682 1.1149L5.30574 1.24304C5.36214 1.07628 5.47015 0.931793 5.61414 0.830512L5.38401 0.503341ZM4.92682 1.1149L4.5464 0.991297L4.07259 2.44955L4.45301 2.57315L4.83343 2.69676L5.30724 1.23851L4.92682 1.1149ZM4.45301 2.57315L4.07466 2.44334C3.98237 2.71234 3.83044 2.95697 3.63024 3.15895L3.91434 3.44054L4.19843 3.72213C4.48355 3.43447 4.69992 3.08606 4.83136 2.70296L4.45301 2.57315ZM3.91434 3.44054L3.63024 3.15895C3.43005 3.36093 3.18677 3.51502 2.9186 3.60969L3.05176 3.98687L3.18491 4.36406C3.56683 4.22923 3.91331 4.00978 4.19843 3.72213L3.91434 3.44054ZM3.05176 3.98687L2.92855 3.60632L1.4798 4.07538L1.60301 4.45594L1.72622 4.83649L3.17497 4.36742L3.05176 3.98687ZM1.60301 4.45594L1.46987 4.07874C1.23021 4.16334 1.0136 4.3027 0.837273 4.48574L1.12535 4.76325L1.41342 5.04076C1.50338 4.94738 1.61388 4.87629 1.73615 4.83313L1.60301 4.45594ZM1.12535 4.76325L0.837273 4.48574C0.660947 4.66877 0.529771 4.89043 0.454182 5.13308L0.836081 5.25205L1.21798 5.37102C1.25654 5.24723 1.32346 5.13414 1.41342 5.04076L1.12535 4.76325ZM0.836081 5.25205L0.454182 5.13308C0.378592 5.37573 0.360675 5.63268 0.401856 5.88347L0.79657 5.81866L1.19128 5.75384C1.17028 5.6259 1.17942 5.49481 1.21798 5.37102L0.836081 5.25205ZM0.79657 5.81866L0.401856 5.88347C0.443037 6.13426 0.542179 6.37198 0.691394 6.57772L1.0152 6.34287L1.339 6.10803C1.26287 6.00307 1.21229 5.88179 1.19128 5.75384L0.79657 5.81866ZM6.12916 9.78128V9.38128H6.12204V9.78128V10.1813H6.12916V9.78128ZM6.12204 9.78128L6.11966 9.38129C6.19072 9.38086 6.2603 9.40157 6.31956 9.44077L6.09886 9.77438L5.87817 10.108C5.95117 10.1563 6.03688 10.1818 6.12442 10.1813L6.12204 9.78128ZM6.09886 9.77438L6.31956 9.44077C6.37881 9.47997 6.42509 9.53591 6.4525 9.60147L6.08345 9.75575L5.7144 9.91003C5.74816 9.99079 5.80517 10.0597 5.87817 10.108L6.09886 9.77438ZM6.08345 9.75575L6.46375 9.63178L5.99944 8.20737L5.61913 8.33134L5.23883 8.45531L5.70314 9.87972L6.08345 9.75575ZM5.61913 8.33134L6.01138 8.25295L6.01078 8.24998L5.61854 8.32837L5.2263 8.40676L5.22689 8.40973L5.61913 8.33134ZM5.61854 8.32837L5.99855 8.20351C5.86136 7.78596 5.65357 7.39504 5.38422 7.04774L5.06813 7.29287L4.75205 7.53801C4.96534 7.81303 5.12989 8.12259 5.23853 8.45323L5.61854 8.32837ZM5.06813 7.29287L5.40097 7.07102L5.39978 7.06924L5.06695 7.29109L4.73411 7.51295L4.7353 7.51473L5.06813 7.29287ZM5.06695 7.29109L5.38302 7.04595C4.91394 6.44113 4.27618 5.98885 3.55026 5.74619L3.42345 6.12556L3.29663 6.50493C3.87263 6.69747 4.37867 7.05634 4.75087 7.53624L5.06695 7.29109ZM3.42345 6.12556L3.5205 5.73751L3.51575 5.73633L3.4187 6.12437L3.32164 6.51242L3.32639 6.51361L3.42345 6.12556ZM3.4187 6.12437L3.54251 5.74402L2.12167 5.28149L1.99785 5.66184L1.87403 6.0422L3.29488 6.50473L3.4187 6.12437ZM1.99785 5.66184L2.15276 5.29305C2.21555 5.31943 2.26935 5.36343 2.30766 5.41972L1.97698 5.64477L1.64629 5.86982C1.69493 5.94129 1.76323 5.99715 1.84295 6.03063L1.99785 5.66184ZM1.97698 5.64477L2.30766 5.41972C2.34598 5.47602 2.36717 5.54222 2.36866 5.6103L1.96876 5.61909L1.56886 5.62788C1.57075 5.71431 1.59765 5.79835 1.64629 5.86982L1.97698 5.64477ZM1.96876 5.61909L2.36869 5.62634C2.36753 5.69054 2.34885 5.75319 2.31469 5.80754L1.97604 5.59467L1.63738 5.38181C1.59401 5.45081 1.5703 5.53035 1.56882 5.61185L1.96876 5.61909ZM1.97604 5.59467L2.31469 5.80754C2.28052 5.8619 2.23216 5.90589 2.17482 5.93477L1.99488 5.57753L1.81495 5.22028C1.74215 5.25695 1.68075 5.3128 1.63738 5.38181L1.97604 5.59467ZM1.99488 5.57753L2.1183 5.95801L3.55518 5.49192L3.43176 5.11144L3.30834 4.73095L1.87146 5.19705L1.99488 5.57753ZM3.43176 5.11144L3.56725 5.48779L3.58209 5.48245L3.4466 5.10609L3.31112 4.72974L3.29627 4.73508L3.43176 5.11144ZM3.4466 5.10609L3.57971 5.4833C4.13068 5.28887 4.63053 4.97232 5.04183 4.55735L4.75774 4.27577L4.47364 3.99418C4.14729 4.32345 3.75067 4.57462 3.3135 4.72889L3.4466 5.10609ZM4.75774 4.27577L5.04183 4.55735C5.45313 4.14238 5.76523 3.63974 5.95475 3.08706L5.57638 2.95731L5.19801 2.82756C5.04763 3.26609 4.79999 3.66492 4.47364 3.99418L4.75774 4.27577ZM5.57638 2.95731L5.95586 3.08381L5.95882 3.0749L5.57935 2.9484L5.19988 2.82191L5.19691 2.83082L5.57638 2.95731ZM5.57935 2.9484L5.9597 3.07224L6.43351 1.61696L6.05316 1.49312L5.67282 1.36929L5.199 2.82457L5.57935 2.9484ZM6.05316 1.49312L6.4277 1.63357C6.40909 1.68319 6.37812 1.73164 6.33414 1.77195L6.06385 1.47709L5.79356 1.18223C5.74009 1.23125 5.70199 1.29039 5.67863 1.35267L6.05316 1.49312ZM6.06385 1.47709L6.26385 1.8235C6.21298 1.85288 6.15526 1.86834 6.09651 1.86834V1.46834V1.06834C6.01483 1.06834 5.93459 1.08984 5.86385 1.13068L6.06385 1.47709ZM6.09651 1.46834V1.86834C6.03776 1.86834 5.98005 1.85288 5.92916 1.8235L6.12916 1.47709L6.32916 1.13068C6.25843 1.08984 6.17819 1.06834 6.09651 1.06834V1.46834ZM6.12916 1.47709L5.86576 1.77812C5.81317 1.7321 5.77946 1.67696 5.76037 1.62448L6.13629 1.48778L6.51221 1.35108C6.48996 1.28989 6.4515 1.22762 6.39257 1.17606L6.12916 1.47709ZM6.13629 1.48778L5.75597 1.6117L6.22028 3.0367L6.6006 2.91278L6.98092 2.78886L6.51661 1.36386L6.13629 1.48778ZM6.6006 2.91278L6.22114 3.03929L6.22351 3.04642L6.60298 2.9199L6.98244 2.79339L6.98007 2.78627L6.6006 2.91278ZM6.60298 2.9199L6.22341 3.04612C6.41315 3.61671 6.73352 4.1351 7.159 4.56001L7.44165 4.27697L7.7243 3.99394C7.38697 3.65706 7.13297 3.24607 6.98254 2.79369L6.60298 2.9199ZM7.44165 4.27697L7.159 4.56001C7.58448 4.98491 8.1033 5.30458 8.67415 5.49355L8.79985 5.11381L8.92556 4.73408C8.47297 4.58426 8.06163 4.33081 7.7243 3.99394L7.44165 4.27697ZM8.79985 5.11381L8.67653 5.49433L10.111 5.95923L10.2344 5.57872L10.3577 5.1982L8.92317 4.73329L8.79985 5.11381ZM10.2344 5.57872L10.1374 5.96678L10.1421 5.96797L10.2391 5.5799L10.3361 5.19184L10.3313 5.19065L10.2344 5.57872ZM10.2391 5.5799L10.1113 5.95894C10.0527 5.93917 10.001 5.90297 9.96232 5.85465L10.2747 5.60484L10.5871 5.35503C10.53 5.2836 10.4536 5.23009 10.3669 5.20087L10.2391 5.5799ZM10.2747 5.60484L9.93894 5.8222C9.89969 5.76157 9.87969 5.69052 9.88151 5.61835L10.2814 5.62848L10.6813 5.6386C10.6835 5.5497 10.6589 5.46217 10.6105 5.38748L10.2747 5.60484ZM10.2814 5.62848L9.88151 5.61835C9.88334 5.54618 9.90692 5.47623 9.94918 5.41768L10.2735 5.65175L10.5979 5.88582C10.65 5.81369 10.679 5.72752 10.6813 5.6386L10.2814 5.62848ZM10.2735 5.65175L9.91573 5.47293L9.91514 5.47412L10.2729 5.65294L10.6308 5.83175L10.6313 5.83057L10.2735 5.65175ZM10.2729 5.65294L9.96448 5.39829C9.99192 5.36504 10.0254 5.33729 10.0633 5.31654L10.2557 5.66719L10.4482 6.01784C10.4992 5.98984 10.5444 5.95243 10.5814 5.90759L10.2729 5.65294ZM10.2557 5.66719L10.132 5.2868L8.70819 5.74993L8.83191 6.13031L8.95564 6.51069L10.3795 6.04757L10.2557 5.66719ZM8.83191 6.13031L8.70542 5.75084L8.6983 5.75321L8.82479 6.13269L8.95128 6.51216L8.95841 6.50978L8.83191 6.13031ZM8.82479 6.13269L8.69882 5.75304C8.12856 5.94225 7.6106 6.26252 7.1865 6.68813L7.46985 6.97047L7.7532 7.2528C8.08903 6.91577 8.49919 6.66217 8.95076 6.51233L8.82479 6.13269ZM7.46985 6.97047L7.18631 6.68833C6.76368 7.11306 6.44451 7.62939 6.25353 8.19732L6.63266 8.32481L7.0118 8.45231C7.16364 8.00079 7.41739 7.59028 7.7534 7.25261L7.46985 6.97047ZM6.63266 8.32481L6.24219 8.23803L6.241 8.24338L6.63148 8.33015L7.02195 8.41693L7.02314 8.41159L6.63266 8.32481ZM6.63148 8.33015L6.25108 8.20646L5.7939 9.61246L6.17429 9.73615L6.55468 9.85985L7.01187 8.45385L6.63148 8.33015ZM6.17429 9.73615L5.80641 9.5791C5.82243 9.54157 5.84643 9.50798 5.87673 9.48066L6.1446 9.77772L6.41248 10.0748C6.46836 10.0244 6.51262 9.96242 6.54217 9.89321L6.17429 9.73615ZM6.1446 9.77772L6.05465 9.38796L6.03921 9.39153L6.12916 9.78128L6.21912 10.171L6.23455 10.1675L6.1446 9.77772ZM14.2315 10.2806L13.8524 10.4082C13.9405 10.6701 14.0883 10.908 14.2841 11.103L14.5664 10.8195L14.8487 10.5361C14.7407 10.4286 14.6592 10.2974 14.6106 10.153L14.2315 10.2806ZM14.5664 10.8195L14.2841 11.103C14.4799 11.298 14.7184 11.4448 14.9806 11.5319L15.1067 11.1522L15.2327 10.7726C15.0881 10.7246 14.9566 10.6436 14.8487 10.5361L14.5664 10.8195ZM15.1067 11.1522L14.9826 11.5325L15.9652 11.8531L16.0893 11.4729L16.2134 11.0926L15.2307 10.772L15.1067 11.1522ZM16.0893 11.4729L15.9708 11.8549C16.0973 11.8942 16.2082 11.9724 16.2876 12.0785L16.6078 11.8388L16.928 11.5991C16.7476 11.358 16.4955 11.1801 16.2079 11.0908L16.0893 11.4729ZM16.6078 11.8388L16.2876 12.0785C16.367 12.1846 16.4108 12.313 16.4128 12.4455L16.8128 12.4394L17.2127 12.4333C17.2082 12.1322 17.1085 11.8402 16.928 11.5991L16.6078 11.8388ZM16.8128 12.4394L16.4128 12.4455C16.4148 12.578 16.3749 12.7077 16.2988 12.8161L16.6262 13.046L16.9535 13.2758C17.1266 13.0294 17.2173 12.7345 17.2127 12.4333L16.8128 12.4394ZM16.6262 13.046L16.2988 12.8161C16.2227 12.9246 16.1142 13.0062 15.9889 13.0492L16.119 13.4275L16.2491 13.8057C16.5339 13.7078 16.7805 13.5223 16.9535 13.2758L16.6262 13.046ZM16.119 13.4275L15.9949 13.0472L15.0016 13.3714L15.1257 13.7517L15.2498 14.1319L16.2431 13.8078L16.119 13.4275ZM15.1257 13.7517L15.0009 13.3716C14.7375 13.4581 14.4982 13.6054 14.3023 13.8015L14.5854 14.0842L14.8684 14.3668C14.9755 14.2596 15.1064 14.179 15.2504 14.1317L15.1257 13.7517ZM14.5854 14.0842L14.3016 13.8023C14.1069 13.9983 13.9598 14.2364 13.8719 14.4983L14.2511 14.6257L14.6303 14.753C14.6792 14.6074 14.7609 14.4751 14.8691 14.3661L14.5854 14.0842ZM14.2511 14.6257L13.8708 14.5017L13.5513 15.4814L13.9316 15.6054L14.3119 15.7294L14.6314 14.7497L14.2511 14.6257ZM13.9316 15.6054L13.5534 15.4753C13.5093 15.6035 13.4259 15.7145 13.3152 15.7927L13.5457 16.1196L13.7762 16.4464C14.0244 16.2714 14.2111 16.0226 14.3099 15.7354L13.9316 15.6054ZM13.5457 16.1196L13.3123 15.7947C13.2072 15.8702 13.0813 15.9114 12.9519 15.9125L12.9555 16.3125L12.9591 16.7125C13.2535 16.7099 13.54 16.6162 13.7791 16.4444L13.5457 16.1196ZM12.9555 16.3125L12.954 15.9125C12.8234 15.913 12.696 15.8728 12.5894 15.7974L12.3584 16.124L12.1274 16.4505C12.37 16.6221 12.66 16.7137 12.957 16.7125L12.9555 16.3125ZM12.3584 16.124L12.5894 15.7974C12.4828 15.722 12.4024 15.6152 12.3594 15.492L11.9818 15.6238L11.6041 15.7556C11.702 16.036 11.8849 16.279 12.1274 16.4505L12.3584 16.124ZM11.9818 15.6238L12.362 15.4995L12.0366 14.5043L11.6564 14.6287L11.2762 14.753L11.6016 15.7481L11.9818 15.6238ZM11.6564 14.6287L12.0368 14.5052C11.951 14.2408 11.804 14.0004 11.6077 13.8035L11.3245 14.086L11.0412 14.3684C11.1486 14.4761 11.229 14.6075 11.2759 14.7521L11.6564 14.6287ZM11.3245 14.086L11.6067 13.8025C11.4105 13.6071 11.1717 13.4595 10.9091 13.3713L10.7818 13.7505L10.6544 14.1297C10.8004 14.1787 10.9331 14.2607 11.0422 14.3694L11.3245 14.086ZM10.7818 13.7505L10.905 13.3699L9.92349 13.0523L9.80032 13.4328L9.67715 13.8134L10.6586 14.1311L10.7818 13.7505ZM9.80032 13.4328L9.92939 13.0542C9.8014 13.0106 9.69054 12.9275 9.61278 12.8169L9.28554 13.0469L8.9583 13.2769C9.13342 13.5261 9.38304 13.7132 9.67126 13.8114L9.80032 13.4328ZM9.28554 13.0469L9.611 12.8144C9.55422 12.7349 9.51675 12.6433 9.50156 12.5468L9.10643 12.609L8.71129 12.6712C8.74582 12.8905 8.831 13.0988 8.96007 13.2794L9.28554 13.0469ZM9.10643 12.609L9.50156 12.5468C9.48637 12.4503 9.49388 12.3516 9.5235 12.2585L9.14233 12.1372L8.76116 12.016C8.69384 12.2275 8.67677 12.4519 8.71129 12.6712L9.10643 12.609ZM9.14233 12.1372L9.5235 12.2585C9.55311 12.1655 9.60402 12.0806 9.67217 12.0106L9.38565 11.7315L9.09912 11.4524C8.9442 11.6114 8.82848 11.8044 8.76116 12.016L9.14233 12.1372ZM9.38565 11.7315L9.67217 12.0106C9.74033 11.9406 9.82385 11.8875 9.91612 11.8555L9.78488 11.4776L9.65364 11.0998C9.44391 11.1726 9.25405 11.2933 9.09912 11.4524L9.38565 11.7315ZM9.78488 11.4776L9.90886 11.8579L10.907 11.5326L10.783 11.1522L10.659 10.7719L9.66091 11.0973L9.78488 11.4776ZM10.783 11.1522L10.9159 11.5295C11.1734 11.4388 11.4066 11.2901 11.5976 11.0951L11.3117 10.8152L11.0259 10.5354C10.9206 10.643 10.792 10.725 10.65 10.775L10.783 11.1522ZM11.3117 10.8152L11.5976 11.0951C11.7885 10.9 11.9322 10.6637 12.0174 10.4043L11.6374 10.2794L11.2574 10.1545C11.2104 10.2975 11.1312 10.4279 11.0259 10.5354L11.3117 10.8152ZM11.6374 10.2794L12.0179 10.4028L12.3355 9.42312L11.955 9.29975L11.5745 9.17637L11.2569 10.1561L11.6374 10.2794ZM11.955 9.29975L12.335 9.42487C12.3658 9.33122 12.4183 9.24613 12.4881 9.1765L12.2056 8.89327L11.9232 8.61004C11.7645 8.76832 11.6452 8.96172 11.5751 9.17462L11.955 9.29975ZM12.2056 8.89327L12.4881 9.1765C12.5579 9.10687 12.6431 9.05465 12.7369 9.02406L12.6128 8.6438L12.4887 8.26353C12.2756 8.33306 12.0819 8.45176 11.9232 8.61004L12.2056 8.89327ZM12.6128 8.6438L12.7369 9.02406C12.8306 8.99348 12.9302 8.98538 13.0277 9.00043L13.0887 8.60511L13.1498 8.2098C12.9283 8.17559 12.7018 8.194 12.4887 8.26353L12.6128 8.6438ZM13.0887 8.60511L13.0277 9.00043C13.1252 9.01548 13.2177 9.05325 13.2978 9.11069L13.5309 8.78556L13.7639 8.46043C13.5817 8.32986 13.3713 8.244 13.1498 8.2098L13.0887 8.60511ZM13.5309 8.78556L13.3011 9.11299C13.4073 9.18749 13.4871 9.29363 13.5291 9.41566L13.9073 9.2855L14.2855 9.15534C14.1886 8.87362 14.0048 8.62944 13.7606 8.45813L13.5309 8.78556ZM13.9073 9.2855L13.527 9.4094L13.8512 10.4045L14.2315 10.2806L14.6118 10.1567L14.2876 9.1616L13.9073 9.2855ZM14.732 12.2792L14.8581 11.8996C14.5389 11.7935 14.2486 11.6147 14.0103 11.3773L13.728 11.6606L13.4456 11.944C13.7718 12.2689 14.169 12.5136 14.6059 12.6588L14.732 12.2792ZM13.728 11.6606L14.0103 11.3773C13.772 11.1398 13.5921 10.8502 13.4849 10.5313L13.1057 10.6588L12.7266 10.7863C12.8733 11.2227 13.1195 11.619 13.4456 11.944L13.728 11.6606ZM13.1057 10.6588L13.4852 10.5324L13.4834 10.527L13.1039 10.6535L12.7245 10.78L12.7263 10.7853L13.1057 10.6588ZM13.1039 10.6535L13.4842 10.5295L13.3138 10.007L12.9335 10.131L12.5533 10.255L12.7237 10.7775L13.1039 10.6535ZM12.9335 10.131L12.553 10.0078L12.3838 10.5303L12.7643 10.6535L13.1449 10.7767L13.3141 10.2542L12.9335 10.131ZM12.7643 10.6535L12.3848 10.527C12.2793 10.8437 12.1034 11.1322 11.8702 11.3709L12.1563 11.6504L12.4425 11.9299C12.7603 11.6046 13 11.2114 13.1438 10.78L12.7643 10.6535ZM12.1563 11.6504L11.8735 11.3675L11.8706 11.3705L12.1534 11.6534L12.4361 11.9363L12.4391 11.9333L12.1563 11.6504ZM12.1534 11.6534L11.8682 11.3729C11.6373 11.6076 11.3557 11.7863 11.045 11.8952L11.1772 12.2727L11.3095 12.6502C11.7357 12.5009 12.1219 12.2558 12.4385 11.9339L12.1534 11.6534ZM11.1772 12.2727L11.056 11.8915L11.0429 11.8956L11.1642 12.2768L11.2854 12.658L11.2985 12.6538L11.1772 12.2727ZM11.1642 12.2768L11.0402 11.8965L10.5029 12.0717L10.6268 12.452L10.7508 12.8323L11.2881 12.6571L11.1642 12.2768ZM10.6268 12.452L10.5037 12.8325L11.0303 13.0029L11.1535 12.6224L11.2766 12.2418L10.75 12.0714L10.6268 12.452ZM11.1535 12.6224L11.0049 12.9938L11.0109 12.9961L11.1594 12.6247L11.308 12.2534L11.302 12.251L11.1535 12.6224ZM11.1594 12.6247L11.0324 13.004C11.3515 13.1109 11.6416 13.2901 11.8806 13.5281L12.1629 13.2446L12.4451 12.9612C12.1189 12.6363 11.7226 12.3915 11.2864 12.2455L11.1594 12.6247ZM12.1629 13.2446L11.88 13.5275L11.8812 13.5287L12.164 13.2458L12.4469 12.963L12.4457 12.9618L12.1629 13.2446ZM12.164 13.2458L11.8812 13.5287C12.1215 13.7689 12.3006 14.0616 12.4052 14.3844L12.7857 14.2611L13.1662 14.1378C13.0226 13.6947 12.7766 13.2927 12.4469 12.963L12.164 13.2458ZM12.7857 14.2611L12.3976 14.3581L12.3982 14.3605L12.7863 14.2635L13.1744 14.1665L13.1738 14.1642L12.7857 14.2611ZM12.7863 14.2635L12.4062 14.3881L12.5736 14.8988L12.9537 14.7741L13.3338 14.6495L13.1664 14.1389L12.7863 14.2635ZM12.9537 14.7741L13.3341 14.898L13.5039 14.3767L13.1235 14.2528L12.7432 14.1289L12.5734 14.6502L12.9537 14.7741ZM13.1235 14.2528L13.4981 14.3933L13.4998 14.3885L13.1253 14.2481L12.7508 14.1076L12.749 14.1123L13.1235 14.2528ZM13.1253 14.2481L13.5045 14.3755C13.6114 14.0574 13.79 13.7682 14.0266 13.5301L13.7428 13.2482L13.4591 12.9662C13.1361 13.2913 12.8922 13.6863 12.7462 14.1206L13.1253 14.2481ZM13.7428 13.2482L14.0263 13.5303C14.266 13.2895 14.5592 13.1089 14.8821 13.0031L14.7575 12.623L14.633 12.2429C14.1902 12.3879 13.788 12.6357 13.4593 12.966L13.7428 13.2482ZM14.7575 12.623L14.8818 13.0032L15.396 12.8351L15.2717 12.4549L15.1475 12.0747L14.6333 12.2428L14.7575 12.623ZM15.2717 12.4549L15.3956 12.0746L14.8559 11.8988L14.732 12.2792L14.6082 12.6595L15.1479 12.8353L15.2717 12.4549Z" fill="#133946" mask="url(#path-1-inside-1_104_27)"/>
</svg>
