<svg width="17" height="17" viewBox="0 0 17 17" fill="none" xmlns="http://www.w3.org/2000/svg">
<path opacity="0.2" d="M15.3172 6.05791L13 8.3751L8.625 4.0001L10.9422 1.68291C11.0594 1.56579 11.2183 1.5 11.384 1.5C11.5497 1.5 11.7086 1.56579 11.8258 1.68291L15.3172 5.17198C15.3755 5.23005 15.4218 5.29908 15.4534 5.3751C15.485 5.45111 15.5013 5.53262 15.5013 5.61494C15.5013 5.69727 15.485 5.77878 15.4534 5.85479C15.4218 5.93081 15.3755 5.99984 15.3172 6.05791Z" fill="#0B2832"/>
<path d="M15.7594 4.73209L12.268 1.24146C12.1519 1.12536 12.0141 1.03326 11.8624 0.970422C11.7107 0.907586 11.5482 0.875244 11.384 0.875244C11.2198 0.875244 11.0572 0.907586 10.9056 0.970422C10.7539 1.03326 10.6161 1.12536 10.5 1.24146L0.866412 10.8751C0.749834 10.9907 0.657407 11.1284 0.594506 11.2801C0.531604 11.4318 0.499482 11.5944 0.500006 11.7586V15.2501C0.500006 15.5816 0.631702 15.8995 0.866123 16.1339C1.10054 16.3684 1.41849 16.5001 1.75001 16.5001H5.24141C5.40563 16.5006 5.5683 16.4685 5.71999 16.4056C5.87168 16.3427 6.00935 16.2502 6.12501 16.1336L12.6617 9.59771L12.9336 10.6836L10.0586 13.5579C9.94133 13.675 9.8754 13.834 9.87533 13.9998C9.87525 14.1656 9.94104 14.3246 10.0582 14.4419C10.1754 14.5591 10.3343 14.6251 10.5001 14.6251C10.6659 14.6252 10.8249 14.5594 10.9422 14.4422L14.0672 11.3172C14.1436 11.2409 14.199 11.1462 14.2279 11.0421C14.2568 10.938 14.2582 10.8283 14.232 10.7235L13.693 8.56646L15.7594 6.50006C15.8755 6.38398 15.9676 6.24617 16.0304 6.09449C16.0933 5.94282 16.1256 5.78025 16.1256 5.61607C16.1256 5.45189 16.0933 5.28933 16.0304 5.13765C15.9676 4.98597 15.8755 4.84816 15.7594 4.73209ZM1.75001 15.2501V13.0086L3.99141 15.2501H1.75001ZM5.50001 14.9915L2.0086 11.5001L8.62501 4.88365L12.1164 8.37506L5.50001 14.9915ZM13 7.49146L9.50938 4.00006L11.3844 2.12506L14.875 5.61646L13 7.49146Z" fill="#0B2832"/>
</svg>
